<svg width="357" height="68" viewBox="0 0 357 68" fill="none" xmlns="http://www.w3.org/2000/svg">
<path d="M147.833 38.392H152.799L155.295 41.6037L157.751 44.4645L162.38 50.267H156.928L153.744 46.3537L152.111 44.0327L147.833 38.392ZM162.798 34.1818C162.798 37.1955 162.227 39.7595 161.085 41.8736C159.951 43.9877 158.404 45.6025 156.442 46.718C154.49 47.8246 152.295 48.3778 149.857 48.3778C147.401 48.3778 145.197 47.8201 143.245 46.7045C141.293 45.589 139.75 43.9742 138.616 41.8601C137.483 39.746 136.916 37.1866 136.916 34.1818C136.916 31.1681 137.483 28.6042 138.616 26.4901C139.75 24.3759 141.293 22.7656 143.245 21.6591C145.197 20.5436 147.401 19.9858 149.857 19.9858C152.295 19.9858 154.49 20.5436 156.442 21.6591C158.404 22.7656 159.951 24.3759 161.085 26.4901C162.227 28.6042 162.798 31.1681 162.798 34.1818ZM156.874 34.1818C156.874 32.2296 156.582 30.5833 155.997 29.2429C155.421 27.9025 154.607 26.8859 153.555 26.1932C152.502 25.5005 151.27 25.1541 149.857 25.1541C148.445 25.1541 147.212 25.5005 146.16 26.1932C145.107 26.8859 144.289 27.9025 143.704 29.2429C143.128 30.5833 142.84 32.2296 142.84 34.1818C142.84 36.134 143.128 37.7803 143.704 39.1207C144.289 40.4612 145.107 41.4777 146.16 42.1705C147.212 42.8632 148.445 43.2095 149.857 43.2095C151.27 43.2095 152.502 42.8632 153.555 42.1705C154.607 41.4777 155.421 40.4612 155.997 39.1207C156.582 37.7803 156.874 36.134 156.874 34.1818ZM184.197 20.3636H190.04V38.3111C190.04 40.3262 189.559 42.0895 188.596 43.6009C187.642 45.1122 186.307 46.2907 184.588 47.1364C182.87 47.973 180.868 48.3913 178.583 48.3913C176.289 48.3913 174.283 47.973 172.565 47.1364C170.847 46.2907 169.511 45.1122 168.557 43.6009C167.603 42.0895 167.127 40.3262 167.127 38.3111V20.3636H172.97V37.8118C172.97 38.8643 173.199 39.8 173.658 40.6186C174.126 41.4373 174.782 42.0805 175.628 42.5483C176.474 43.0161 177.459 43.25 178.583 43.25C179.717 43.25 180.702 43.0161 181.539 42.5483C182.384 42.0805 183.036 41.4373 183.495 40.6186C183.963 39.8 184.197 38.8643 184.197 37.8118V20.3636ZM199.611 48H193.349L202.89 20.3636H210.42L219.947 48H213.685L206.763 26.679H206.547L199.611 48ZM199.219 37.1371H214.009V41.6982H199.219V37.1371ZM246.389 20.3636V48H241.342L229.319 30.6058H229.116V48H223.273V20.3636H228.401L240.33 37.7443H240.573V20.3636H246.389ZM250.164 25.1811V20.3636H272.861V25.1811H264.4V48H258.625V25.1811H250.164ZM300.734 34.1818C300.734 37.1955 300.163 39.7595 299.02 41.8736C297.887 43.9877 296.339 45.6025 294.378 46.718C292.426 47.8246 290.231 48.3778 287.793 48.3778C285.337 48.3778 283.133 47.8201 281.181 46.7045C279.228 45.589 277.686 43.9742 276.552 41.8601C275.419 39.746 274.852 37.1866 274.852 34.1818C274.852 31.1681 275.419 28.6042 276.552 26.4901C277.686 24.3759 279.228 22.7656 281.181 21.6591C283.133 20.5436 285.337 19.9858 287.793 19.9858C290.231 19.9858 292.426 20.5436 294.378 21.6591C296.339 22.7656 297.887 24.3759 299.02 26.4901C300.163 28.6042 300.734 31.1681 300.734 34.1818ZM294.81 34.1818C294.81 32.2296 294.517 30.5833 293.933 29.2429C293.357 27.9025 292.543 26.8859 291.49 26.1932C290.438 25.5005 289.205 25.1541 287.793 25.1541C286.38 25.1541 285.148 25.5005 284.095 26.1932C283.043 26.8859 282.224 27.9025 281.639 29.2429C281.064 30.5833 280.776 32.2296 280.776 34.1818C280.776 36.134 281.064 37.7803 281.639 39.1207C282.224 40.4612 283.043 41.4777 284.095 42.1705C285.148 42.8632 286.38 43.2095 287.793 43.2095C289.205 43.2095 290.438 42.8632 291.49 42.1705C292.543 41.4777 293.357 40.4612 293.933 39.1207C294.517 37.7803 294.81 36.134 294.81 34.1818ZM305.062 48V20.3636H315.966C318.053 20.3636 319.834 20.737 321.309 21.4837C322.794 22.2214 323.923 23.2694 324.696 24.6278C325.479 25.9773 325.87 27.5651 325.87 29.3913C325.87 31.2266 325.475 32.8054 324.683 34.1278C323.891 35.4413 322.744 36.4489 321.242 37.1506C319.748 37.8523 317.94 38.2031 315.817 38.2031H308.517V33.5071H314.873C315.988 33.5071 316.915 33.3542 317.652 33.0483C318.39 32.7424 318.939 32.2836 319.299 31.6719C319.667 31.0601 319.852 30.3 319.852 29.3913C319.852 28.4737 319.667 27.7 319.299 27.0703C318.939 26.4406 318.386 25.9638 317.639 25.6399C316.901 25.3071 315.97 25.1406 314.846 25.1406H310.905V48H305.062ZM319.987 35.4233L326.855 48H320.405L313.685 35.4233H319.987ZM334.763 48H328.502L338.042 20.3636H345.572L355.099 48H348.838L341.915 26.679H341.699L334.763 48ZM334.372 37.1371H349.162V41.6982H334.372V37.1371Z" fill="#272834"/>
<path d="M117.21 34.0121C117.21 51.8166 102.787 66.2486 84.9957 66.2486C80.0375 66.2486 75.5404 64.8642 71.3455 62.8629C71.1749 62.783 71.0069 62.7005 70.8389 62.6167L62.053 50.9993L52.0247 37.5929C52.3152 36.6276 52.3373 35.3781 52.3464 34.0566C52.3998 26.4379 46.5118 16.0897 34.2551 16.0897C24.15 16.1237 15.9567 24.1734 15.9567 34.1457C15.9567 44.118 24.15 52.203 34.2551 52.203C36.9899 52.2094 39.692 51.6059 42.1671 50.4362L32.8915 37.8732L48.3612 37.8876L50.9959 41.437L60.1268 53.7354L61.928 56.1649L68.5232 65.0462H52.547L50.4515 62.0928L49.0592 62.7843C48.9368 62.8459 48.8118 62.9074 48.6893 62.9651C48.5344 63.0423 48.3781 63.1157 48.2231 63.1864C48.0681 63.2571 47.9209 63.3279 47.7673 63.396C47.5485 63.4973 47.3279 63.5933 47.1057 63.6841C46.932 63.7575 46.7584 63.8282 46.5847 63.8963C46.5558 63.9088 46.5262 63.9197 46.4961 63.929C46.392 63.9723 46.2852 64.0155 46.1784 64.06C45.6965 64.2469 45.2098 64.4215 44.7184 64.5839C44.6429 64.6088 44.566 64.6363 44.4866 64.6612C44.4071 64.6861 44.2951 64.7254 44.1975 64.7502L43.8953 64.8445C43.8824 64.8505 43.8688 64.8548 43.8549 64.8576C43.6505 64.9218 43.446 64.9794 43.2389 65.0384C42.6763 65.1955 42.1084 65.3396 41.5354 65.4653C41.3453 65.5086 41.159 65.5479 40.9702 65.5845C40.5365 65.6736 40.1002 65.7535 39.6678 65.8242C39.4229 65.8648 39.182 65.9015 38.9346 65.9342C38.6415 65.9748 38.3485 66.0115 38.0528 66.0456C37.8874 66.0639 37.7259 66.0822 37.5605 66.094C37.4303 66.1097 37.3001 66.1189 37.1633 66.132C36.8651 66.1595 36.5655 66.1778 36.266 66.1962C35.6374 66.2355 35.0035 66.2547 34.3645 66.2538C16.3735 66.2486 1.78948 51.8166 1.78948 34.0121C1.78948 16.2076 16.3735 1.77954 34.3606 1.77954C34.9988 1.77954 35.633 1.79788 36.2621 1.83848C40.9706 2.09699 45.5676 3.37818 49.7367 5.59392C53.9059 7.80965 57.5483 10.9073 60.4133 14.6739C64.6468 20.2211 66.9393 27.0195 66.9343 34.0121V34.0645C66.9343 37.3742 68.195 40.3708 69.7996 43.0139C72.7586 47.8979 78.3835 52.0078 85.0504 52.0078C95.0579 52.0078 103.166 43.9739 103.166 34.0645C103.166 24.155 95.0487 15.7282 85.0504 16.108C77.7323 16.3831 72.3744 21.0235 69.4987 26.73C69.4557 26.8164 69.3984 26.9356 69.3255 27.0862C68.7538 20.4734 66.0552 16.3464 62.4477 12.3779C68.3175 6.18549 76.0627 1.77954 85.264 1.77954C103.056 1.77954 117.21 16.2128 117.21 34.0121Z" fill="#272834"/>
</svg>
