<svg width="349" height="68" viewBox="0 0 349 68" fill="none" xmlns="http://www.w3.org/2000/svg">
<path d="M148.386 39.3636H152.057L155.134 43.4119L155.943 44.4915L160.531 50.5909H156.861L153.838 46.5426L153.082 45.517L148.386 39.3636ZM161.665 34.1818C161.665 37.0966 161.138 39.6155 160.086 41.7386C159.033 43.8617 157.589 45.4991 155.754 46.6506C153.919 47.8021 151.823 48.3778 149.466 48.3778C147.109 48.3778 145.013 47.8021 143.178 46.6506C141.342 45.4991 139.898 43.8617 138.846 41.7386C137.793 39.6155 137.267 37.0966 137.267 34.1818C137.267 31.267 137.793 28.7481 138.846 26.625C139.898 24.5019 141.342 22.8646 143.178 21.7131C145.013 20.5616 147.109 19.9858 149.466 19.9858C151.823 19.9858 153.919 20.5616 155.754 21.7131C157.589 22.8646 159.033 24.5019 160.086 26.625C161.138 28.7481 161.665 31.267 161.665 34.1818ZM158.426 34.1818C158.426 31.7888 158.026 29.7692 157.225 28.1229C156.433 26.4766 155.358 25.2306 154 24.3849C152.651 23.5393 151.139 23.1165 149.466 23.1165C147.793 23.1165 146.277 23.5393 144.918 24.3849C143.569 25.2306 142.494 26.4766 141.693 28.1229C140.902 29.7692 140.506 31.7888 140.506 34.1818C140.506 36.5748 140.902 38.5945 141.693 40.2408C142.494 41.8871 143.569 43.133 144.918 43.9787C146.277 44.8243 147.793 45.2472 149.466 45.2472C151.139 45.2472 152.651 44.8243 154 43.9787C155.358 43.133 156.433 41.8871 157.225 40.2408C158.026 38.5945 158.426 36.5748 158.426 34.1818ZM185.428 20.3636H188.775V38.6619C188.775 40.5511 188.33 42.2379 187.439 43.7223C186.557 45.1977 185.311 46.3627 183.701 47.2173C182.091 48.063 180.201 48.4858 178.033 48.4858C175.865 48.4858 173.976 48.063 172.366 47.2173C170.755 46.3627 169.505 45.1977 168.614 43.7223C167.733 42.2379 167.292 40.5511 167.292 38.6619V20.3636H170.638V38.392C170.638 39.7415 170.935 40.9425 171.529 41.995C172.123 43.0386 172.969 43.8617 174.066 44.4645C175.173 45.0582 176.495 45.3551 178.033 45.3551C179.572 45.3551 180.894 45.0582 182.001 44.4645C183.107 43.8617 183.953 43.0386 184.538 41.995C185.131 40.9425 185.428 39.7415 185.428 38.392V20.3636ZM196.591 48H193.083L203.231 20.3636H206.685L216.833 48H213.324L205.066 24.7358H204.85L196.591 48ZM197.887 37.2045H212.029V40.1733H197.887V37.2045ZM243.052 20.3636V48H239.814L224.754 26.3011H224.484V48H221.138V20.3636H224.376L239.49 42.1165H239.76V20.3636H243.052ZM248.238 23.3324V20.3636H268.965V23.3324H260.275V48H256.928V23.3324H248.238ZM296.298 34.1818C296.298 37.0966 295.771 39.6155 294.719 41.7386C293.666 43.8617 292.222 45.4991 290.387 46.6506C288.552 47.8021 286.456 48.3778 284.099 48.3778C281.742 48.3778 279.646 47.8021 277.81 46.6506C275.975 45.4991 274.531 43.8617 273.479 41.7386C272.426 39.6155 271.9 37.0966 271.9 34.1818C271.9 31.267 272.426 28.7481 273.479 26.625C274.531 24.5019 275.975 22.8646 277.81 21.7131C279.646 20.5616 281.742 19.9858 284.099 19.9858C286.456 19.9858 288.552 20.5616 290.387 21.7131C292.222 22.8646 293.666 24.5019 294.719 26.625C295.771 28.7481 296.298 31.267 296.298 34.1818ZM293.059 34.1818C293.059 31.7888 292.659 29.7692 291.858 28.1229C291.066 26.4766 289.991 25.2306 288.633 24.3849C287.283 23.5393 285.772 23.1165 284.099 23.1165C282.425 23.1165 280.91 23.5393 279.551 24.3849C278.202 25.2306 277.127 26.4766 276.326 28.1229C275.534 29.7692 275.138 31.7888 275.138 34.1818C275.138 36.5748 275.534 38.5945 276.326 40.2408C277.127 41.8871 278.202 43.133 279.551 43.9787C280.91 44.8243 282.425 45.2472 284.099 45.2472C285.772 45.2472 287.283 44.8243 288.633 43.9787C289.991 43.133 291.066 41.8871 291.858 40.2408C292.659 38.5945 293.059 36.5748 293.059 34.1818ZM301.925 48V20.3636H311.263C313.422 20.3636 315.194 20.7325 316.58 21.4702C317.965 22.1989 318.991 23.2019 319.656 24.4794C320.322 25.7569 320.655 27.2098 320.655 28.8381C320.655 30.4664 320.322 31.9103 319.656 33.1697C318.991 34.4292 317.969 35.4188 316.593 36.1385C315.217 36.8492 313.458 37.2045 311.317 37.2045H303.76V34.1818H311.209C312.684 34.1818 313.872 33.9659 314.771 33.5341C315.68 33.1023 316.337 32.4905 316.741 31.6989C317.155 30.8982 317.362 29.9446 317.362 28.8381C317.362 27.7315 317.155 26.7644 316.741 25.9368C316.328 25.1091 315.666 24.4704 314.758 24.0206C313.849 23.5618 312.648 23.3324 311.155 23.3324H305.271V48H301.925ZM314.933 35.5852L321.734 48H317.848L311.155 35.5852H314.933ZM327.365 48H323.856L334.004 20.3636H337.459L347.606 48H344.098L335.839 24.7358H335.623L327.365 48ZM328.66 37.2045H342.802V40.1733H328.66V37.2045Z" fill="#272834"/>
<path d="M117.21 34.0121C117.21 51.8166 102.787 66.2486 84.9957 66.2486C80.0375 66.2486 75.5404 64.8642 71.3455 62.8629C71.1749 62.783 71.0069 62.7005 70.8389 62.6167L62.053 50.9993L52.0247 37.5929C52.3152 36.6276 52.3373 35.3781 52.3464 34.0566C52.3998 26.4379 46.5118 16.0897 34.2551 16.0897C24.15 16.1237 15.9567 24.1734 15.9567 34.1457C15.9567 44.118 24.15 52.203 34.2551 52.203C36.9899 52.2094 39.692 51.6059 42.1671 50.4362L32.8915 37.8732L48.3612 37.8876L50.9959 41.437L60.1268 53.7354L61.928 56.1649L68.5232 65.0462H52.547L50.4515 62.0928L49.0592 62.7843C48.9368 62.8459 48.8118 62.9074 48.6893 62.9651C48.5344 63.0423 48.3781 63.1157 48.2231 63.1864C48.0681 63.2571 47.9209 63.3279 47.7673 63.396C47.5485 63.4973 47.3279 63.5933 47.1057 63.6841C46.932 63.7575 46.7584 63.8282 46.5847 63.8963C46.5558 63.9088 46.5262 63.9197 46.4961 63.929C46.392 63.9723 46.2852 64.0155 46.1784 64.06C45.6965 64.2469 45.2098 64.4215 44.7184 64.5839C44.6429 64.6088 44.566 64.6363 44.4866 64.6612C44.4071 64.6861 44.2951 64.7254 44.1975 64.7502L43.8953 64.8445C43.8824 64.8505 43.8688 64.8548 43.8549 64.8576C43.6505 64.9218 43.446 64.9794 43.2389 65.0384C42.6763 65.1955 42.1084 65.3396 41.5354 65.4653C41.3453 65.5086 41.159 65.5479 40.9702 65.5845C40.5365 65.6736 40.1002 65.7535 39.6678 65.8242C39.4229 65.8648 39.182 65.9015 38.9346 65.9342C38.6415 65.9748 38.3485 66.0115 38.0528 66.0456C37.8874 66.0639 37.7259 66.0822 37.5605 66.094C37.4303 66.1097 37.3001 66.1189 37.1633 66.132C36.8651 66.1595 36.5655 66.1778 36.266 66.1962C35.6374 66.2355 35.0035 66.2547 34.3645 66.2538C16.3735 66.2486 1.78948 51.8166 1.78948 34.0121C1.78948 16.2076 16.3735 1.77954 34.3606 1.77954C34.9988 1.77954 35.633 1.79788 36.2621 1.83848C40.9706 2.09699 45.5676 3.37818 49.7367 5.59392C53.9059 7.80965 57.5483 10.9073 60.4133 14.6739C64.6468 20.2211 66.9393 27.0195 66.9343 34.0121V34.0645C66.9343 37.3742 68.195 40.3708 69.7996 43.0139C72.7586 47.8979 78.3835 52.0078 85.0504 52.0078C95.0579 52.0078 103.166 43.9739 103.166 34.0645C103.166 24.155 95.0487 15.7282 85.0504 16.108C77.7323 16.3831 72.3744 21.0235 69.4987 26.73C69.4557 26.8164 69.3984 26.9356 69.3255 27.0862C68.7538 20.4734 66.0552 16.3464 62.4477 12.3779C68.3175 6.18549 76.0627 1.77954 85.264 1.77954C103.056 1.77954 117.21 16.2128 117.21 34.0121Z" fill="#272834"/>
</svg>
